<svg id="svg" version="1.1" xmlns="http://www.w3.org/2000/svg" xmlns:xlink="http://www.w3.org/1999/xlink" width="400" height="969.7959183673469" viewBox="0, 0, 400,969.7959183673469"><g id="svgg"><path id="path0" d="M88.565 25.708 C 88.347 26.279,88.170 28.463,88.170 30.562 C 88.170 32.661,88.124 34.421,88.069 34.472 C 88.013 34.524,75.228 34.661,59.656 34.776 L 31.345 34.985 31.345 484.732 L 31.345 934.479 69.122 934.582 C 96.217 934.657,107.053 934.813,107.443 935.138 C 107.839 935.466,107.988 936.795,107.988 939.990 L 107.988 944.390 182.912 944.288 L 257.836 944.186 258.038 939.535 L 258.241 934.884 297.169 934.781 L 336.097 934.677 336.097 739.102 C 336.097 605.060,336.229 543.280,336.516 542.744 C 336.920 541.989,337.545 541.962,354.322 541.962 L 371.709 541.962 372.103 540.924 C 372.642 539.508,372.642 419.441,372.103 418.024 L 371.709 416.987 354.388 416.987 C 341.456 416.987,336.945 416.864,336.582 416.502 C 336.206 416.125,336.097 373.118,336.097 225.399 L 336.097 34.783 317.719 34.783 C 303.460 34.783,299.267 34.669,299.013 34.277 C 298.833 33.999,298.595 31.769,298.483 29.323 L 298.281 24.874 193.620 24.772 L 88.959 24.670 88.565 25.708 M295.407 28.547 C 295.891 29.810,295.679 43.492,295.167 44.004 C 294.460 44.711,92.598 44.711,91.891 44.004 C 91.367 43.480,91.165 28.687,91.675 28.177 C 92.341 27.510,295.150 27.879,295.407 28.547 M88.170 42.467 L 88.372 47.118 193.428 47.220 L 298.483 47.322 298.483 43.505 C 298.483 41.406,298.661 39.222,298.878 38.651 L 299.272 37.614 315.815 37.614 C 329.217 37.614,332.444 37.718,332.812 38.160 C 333.145 38.562,333.292 89.175,333.367 229.161 L 333.468 419.616 351.050 419.818 L 368.632 420.020 369.143 421.031 C 369.893 422.515,369.893 536.434,369.143 537.917 L 368.631 538.928 351.273 539.034 C 338.004 539.114,333.840 539.257,333.597 539.640 C 333.422 539.916,333.276 628.072,333.272 735.542 C 333.267 899.710,333.178 931.015,332.716 931.399 C 332.315 931.731,322.178 931.827,295.204 931.751 L 258.241 931.648 257.991 926.997 C 257.853 924.439,257.716 922.300,257.687 922.244 C 257.658 922.187,224.009 922.187,182.912 922.244 L 108.190 922.346 108.076 926.655 C 107.997 929.622,107.794 931.103,107.425 931.410 C 107.041 931.728,96.585 931.825,70.734 931.751 L 34.580 931.648 34.477 485.137 C 34.420 239.555,34.461 38.396,34.567 38.116 C 34.719 37.714,40.294 37.630,61.364 37.712 L 87.968 37.816 88.170 42.467 M254.317 925.460 C 255.001 926.144,255.001 940.388,254.317 941.072 C 253.612 941.778,112.010 941.778,111.304 941.072 C 110.683 940.450,110.624 926.904,111.238 925.757 C 111.757 924.787,253.351 924.493,254.317 925.460 " stroke="none" fill="#060606" fill-rule="evenodd"></path><path id="path1" d="M0.000 485.339 L 0.000 970.677 200.000 970.677 L 400.000 970.677 400.000 485.339 L 400.000 0.000 200.000 0.000 L 0.000 0.000 0.000 485.339 M299.140 24.348 C 299.306 24.616,299.522 26.798,299.620 29.198 L 299.800 33.561 318.248 33.666 L 336.696 33.771 336.955 34.985 C 337.098 35.652,337.236 121.694,337.263 226.188 L 337.310 416.178 355.029 416.178 C 369.693 416.178,372.883 416.277,373.532 416.752 C 374.768 417.655,374.768 541.698,373.532 542.601 C 372.883 543.076,369.693 543.175,355.029 543.175 L 337.310 543.175 337.304 738.625 C 337.300 895.388,337.197 934.275,336.787 935.086 L 336.275 936.097 297.561 936.200 L 258.847 936.303 258.847 940.421 C 258.847 944.092,258.752 944.640,257.968 945.474 L 257.089 946.411 182.873 946.411 C 114.383 946.411,108.601 946.359,107.919 945.741 C 107.289 945.171,107.179 944.421,107.179 940.686 L 107.179 936.299 69.306 936.299 C 33.712 936.299,31.402 936.257,30.897 935.592 C 30.005 934.416,30.081 34.157,30.973 33.815 C 31.325 33.680,44.156 33.569,59.487 33.569 L 87.361 33.569 87.361 29.356 C 87.361 27.038,87.471 24.854,87.606 24.502 C 87.931 23.657,298.618 23.504,299.140 24.348 M35.187 485.137 L 35.187 931.041 71.183 931.041 L 107.179 931.041 107.179 926.231 C 107.179 922.218,107.285 921.381,107.819 921.176 C 109.152 920.664,257.847 920.901,258.362 921.416 C 258.682 921.736,258.847 923.456,258.847 926.471 L 258.847 931.041 295.652 931.041 L 332.457 931.041 332.457 734.560 C 332.457 582.281,332.566 537.970,332.942 537.594 C 333.305 537.231,337.859 537.108,350.940 537.108 L 368.453 537.108 368.453 479.474 L 368.453 421.840 351.354 421.840 C 336.532 421.840,334.135 421.756,333.356 421.211 L 332.457 420.581 332.457 229.906 L 332.457 39.232 316.114 39.232 L 299.770 39.232 299.632 43.417 C 299.541 46.193,299.307 47.828,298.939 48.271 C 298.030 49.364,89.020 49.293,88.030 48.199 C 87.500 47.613,87.361 46.606,87.361 43.345 L 87.361 39.232 61.274 39.232 L 35.187 39.232 35.187 485.137 " stroke="none" fill="#ffffff" fill-rule="evenodd"></path><path id="path2" d="M91.203 24.267 L 87.968 24.469 87.765 29.120 L 87.563 33.771 59.454 33.873 C 33.599 33.966,31.304 34.029,30.839 34.658 C 30.173 35.559,30.087 933.464,30.752 934.708 C 31.162 935.473,32.016 935.490,69.175 935.490 L 107.179 935.490 107.185 939.838 C 107.189 942.230,107.336 944.414,107.513 944.693 C 107.769 945.096,123.142 945.179,183.038 945.097 L 258.241 944.995 258.491 940.344 C 258.628 937.786,258.765 935.647,258.794 935.592 C 258.823 935.536,276.206 935.490,297.423 935.490 C 329.331 935.490,336.076 935.396,336.452 934.944 C 336.785 934.542,336.932 882.559,337.007 738.685 L 337.108 542.973 354.702 542.874 C 372.069 542.777,372.304 542.765,373.003 541.919 C 373.857 540.886,374.127 420.158,373.281 417.931 C 372.610 416.168,372.860 416.191,354.399 416.184 L 336.907 416.178 336.805 225.177 L 336.704 34.176 318.099 33.974 L 299.494 33.771 299.380 29.204 C 299.302 26.079,299.110 24.577,298.773 24.449 C 298.098 24.192,95.240 24.015,91.203 24.267 M298.483 29.323 C 298.595 31.769,298.833 33.999,299.013 34.277 C 299.267 34.669,303.460 34.783,317.719 34.783 L 336.097 34.783 336.097 225.399 C 336.097 373.118,336.206 416.125,336.582 416.502 C 336.945 416.864,341.456 416.987,354.388 416.987 L 371.709 416.987 372.103 418.024 C 372.642 419.441,372.642 539.508,372.103 540.924 L 371.709 541.962 354.322 541.962 C 337.545 541.962,336.920 541.989,336.516 542.744 C 336.229 543.280,336.097 605.060,336.097 739.102 L 336.097 934.677 297.169 934.781 L 258.241 934.884 258.038 939.535 L 257.836 944.186 182.912 944.288 L 107.988 944.390 107.988 939.990 C 107.988 936.795,107.839 935.466,107.443 935.138 C 107.053 934.813,96.217 934.657,69.122 934.582 L 31.345 934.479 31.345 484.732 L 31.345 34.985 59.656 34.776 C 75.228 34.661,88.013 34.524,88.069 34.472 C 88.124 34.421,88.170 32.661,88.170 30.562 C 88.170 28.463,88.347 26.279,88.565 25.708 L 88.959 24.670 193.620 24.772 L 298.281 24.874 298.483 29.323 M91.675 28.177 C 91.165 28.687,91.367 43.480,91.891 44.004 C 92.598 44.711,294.460 44.711,295.167 44.004 C 295.679 43.492,295.891 29.810,295.407 28.547 C 295.150 27.879,92.341 27.510,91.675 28.177 M294.843 36.400 L 294.843 43.680 193.529 43.680 L 92.214 43.680 92.214 36.400 L 92.214 29.120 193.529 29.120 L 294.843 29.120 294.843 36.400 M34.567 38.116 C 34.461 38.396,34.420 239.555,34.477 485.137 L 34.580 931.648 70.734 931.751 C 96.585 931.825,107.041 931.728,107.425 931.410 C 107.794 931.103,107.997 929.622,108.076 926.655 L 108.190 922.346 182.912 922.244 C 224.009 922.187,257.658 922.187,257.687 922.244 C 257.716 922.300,257.853 924.439,257.991 926.997 L 258.241 931.648 295.204 931.751 C 322.178 931.827,332.315 931.731,332.716 931.399 C 333.178 931.015,333.267 899.710,333.272 735.542 C 333.276 628.072,333.422 539.916,333.597 539.640 C 333.840 539.257,338.004 539.114,351.273 539.034 L 368.631 538.928 369.143 537.917 C 369.893 536.434,369.893 422.515,369.143 421.031 L 368.632 420.020 351.050 419.818 L 333.468 419.616 333.367 229.161 C 333.292 89.175,333.145 38.562,332.812 38.160 C 332.444 37.718,329.217 37.614,315.815 37.614 L 299.272 37.614 298.878 38.651 C 298.661 39.222,298.483 41.406,298.483 43.505 L 298.483 47.322 193.428 47.220 L 88.372 47.118 88.170 42.467 L 87.968 37.816 61.364 37.712 C 40.294 37.630,34.719 37.714,34.567 38.116 M87.414 38.524 C 87.443 38.579,87.580 40.718,87.718 43.276 L 87.968 47.927 193.082 48.029 C 268.901 48.103,298.345 48.007,298.731 47.687 C 299.098 47.382,299.301 45.894,299.380 42.934 L 299.494 38.625 315.976 38.519 L 332.457 38.414 332.457 228.880 C 332.457 333.637,332.568 419.635,332.703 419.987 C 332.921 420.557,334.886 420.627,350.701 420.627 L 368.453 420.627 368.453 479.070 L 368.453 537.513 351.085 537.513 L 333.716 537.513 333.087 538.412 C 332.519 539.222,332.457 558.557,332.457 735.178 L 332.457 931.046 295.551 930.942 L 258.645 930.839 258.443 926.188 L 258.241 921.537 183.258 921.435 C 128.172 921.360,108.130 921.453,107.727 921.788 C 107.327 922.120,107.179 923.433,107.179 926.644 L 107.179 931.046 71.082 930.943 L 34.985 930.839 34.871 485.945 C 34.808 241.254,34.862 40.460,34.990 39.737 L 35.224 38.423 61.292 38.423 C 75.630 38.423,87.385 38.468,87.414 38.524 M111.238 925.757 C 110.624 926.904,110.683 940.450,111.304 941.072 C 112.010 941.778,253.612 941.778,254.317 941.072 C 255.001 940.388,255.001 926.144,254.317 925.460 C 253.351 924.493,111.757 924.787,111.238 925.757 M253.902 933.635 L 254.013 940.748 182.820 940.748 L 111.628 940.748 111.628 934.108 C 111.628 930.456,111.721 927.225,111.835 926.929 C 112.006 926.483,124.222 926.402,182.917 926.456 L 253.792 926.522 253.902 933.635 " stroke="none" fill="#cccccc" fill-rule="evenodd"></path><path id="path3" d="M299.472 30.131 L 299.494 33.771 318.162 33.974 C 328.429 34.085,336.745 34.039,336.641 33.873 C 336.538 33.706,328.190 33.569,318.090 33.569 L 299.727 33.569 299.588 30.030 L 299.449 26.491 299.472 30.131 M92.214 36.603 L 92.214 43.276 193.529 43.276 L 294.843 43.276 294.843 36.603 L 294.843 29.929 193.529 29.929 L 92.214 29.929 92.214 36.603 M45.227 33.872 C 53.084 33.934,65.825 33.934,73.538 33.872 C 81.252 33.811,74.823 33.761,59.252 33.761 C 43.680 33.761,37.369 33.811,45.227 33.872 M337.106 226.087 C 337.106 330.748,337.153 373.564,337.209 321.234 C 337.266 268.903,337.266 183.271,337.209 130.940 C 337.153 78.610,337.106 121.426,337.106 226.087 M35.187 38.827 C 35.187 39.093,44.152 39.232,61.274 39.232 C 78.396 39.232,87.361 39.093,87.361 38.827 C 87.361 38.562,78.396 38.423,61.274 38.423 C 44.152 38.423,35.187 38.562,35.187 38.827 M299.484 39.333 C 299.358 39.833,299.318 41.790,299.394 43.680 L 299.532 47.118 299.614 43.175 L 299.697 39.232 316.077 39.232 C 326.727 39.232,332.457 39.090,332.457 38.827 C 332.457 38.564,326.730 38.423,316.085 38.423 L 299.712 38.423 299.484 39.333 M87.387 46.955 C 87.373 47.309,87.694 47.901,88.101 48.269 C 89.083 49.158,298.067 49.320,298.804 48.433 C 299.139 48.028,278.079 47.948,193.684 48.030 L 88.145 48.132 87.779 47.221 C 87.541 46.629,87.403 46.535,87.387 46.955 M373.104 416.970 C 373.906 417.872,373.913 418.454,373.913 479.755 L 373.913 541.629 372.958 542.402 C 371.859 543.292,372.353 543.463,373.532 542.601 C 374.303 542.038,374.320 540.877,374.438 481.630 C 374.566 417.450,374.562 417.249,373.176 416.522 L 372.295 416.060 373.104 416.970 M333.210 421.029 C 334.290 421.947,368.453 422.341,368.453 421.436 C 368.453 421.173,362.530 421.031,351.492 421.031 C 341.149 421.031,334.088 420.873,333.393 420.625 L 332.255 420.218 333.210 421.029 M332.942 537.594 C 332.675 537.860,332.457 538.259,332.457 538.480 C 332.457 538.700,332.685 538.573,332.963 538.198 C 333.421 537.579,335.098 537.505,351.062 537.408 L 368.655 537.302 351.041 537.205 C 337.771 537.132,333.308 537.228,332.942 537.594 M337.107 738.726 C 337.107 846.390,337.153 890.374,337.209 836.468 C 337.266 782.562,337.266 694.473,337.209 640.715 C 337.153 586.957,337.107 631.062,337.107 738.726 M145.533 921.234 C 166.293 921.291,200.146 921.291,220.760 921.234 C 241.374 921.176,224.388 921.128,183.013 921.128 C 141.638 921.128,124.772 921.176,145.533 921.234 M112.032 933.873 L 112.032 940.748 183.013 940.748 L 253.994 940.748 253.994 933.873 L 253.994 926.997 183.013 926.997 L 112.032 926.997 112.032 933.873 M297.776 935.389 C 272.294 935.458,258.847 935.633,258.847 935.897 C 258.847 936.634,335.888 936.431,336.502 935.693 C 336.778 935.359,336.937 935.131,336.854 935.185 C 336.772 935.239,319.186 935.331,297.776 935.389 M31.143 935.907 C 31.143 936.158,44.857 936.299,69.161 936.299 C 94.594 936.299,107.179 936.163,107.179 935.889 C 107.179 935.615,94.606 935.485,69.161 935.497 C 44.869 935.508,31.143 935.656,31.143 935.907 M107.747 945.543 L 108.518 946.411 182.824 946.411 C 241.776 946.411,257.217 946.306,257.550 945.905 C 257.886 945.501,243.012 945.420,183.363 945.504 C 127.616 945.582,108.531 945.490,107.866 945.142 C 106.983 944.678,106.982 944.681,107.747 945.543 " stroke="none" fill="#e4e4e4" fill-rule="evenodd"></path><path id="path4" d="M89.889 24.157 C 90.723 24.244,92.088 24.244,92.922 24.157 C 93.756 24.070,93.074 23.998,91.405 23.998 C 89.737 23.998,89.055 24.070,89.889 24.157 M147.086 24.166 C 172.927 24.223,215.334 24.223,241.322 24.166 C 267.311 24.108,246.168 24.061,194.338 24.061 C 142.508 24.061,121.244 24.108,147.086 24.166 M292.922 24.160 C 293.979 24.243,295.708 24.243,296.764 24.160 C 297.821 24.076,296.957 24.008,294.843 24.008 C 292.730 24.008,291.866 24.076,292.922 24.160 M87.505 30.131 C 87.503 32.133,87.572 33.003,87.657 32.065 C 87.741 31.126,87.742 29.488,87.659 28.425 C 87.575 27.361,87.506 28.129,87.505 30.131 M92.214 29.525 C 92.214 29.793,126.255 29.929,193.529 29.929 C 260.802 29.929,294.843 29.793,294.843 29.525 C 294.843 29.256,260.802 29.120,193.529 29.120 C 126.255 29.120,92.214 29.256,92.214 29.525 M34.984 485.137 C 34.984 730.273,35.030 830.617,35.086 708.122 C 35.142 585.628,35.142 385.062,35.086 262.420 C 35.030 139.777,34.984 240.000,34.984 485.137 M87.505 43.074 C 87.503 45.076,87.572 45.946,87.657 45.007 C 87.741 44.068,87.742 42.430,87.659 41.367 C 87.575 40.304,87.506 41.072,87.505 43.074 M142.904 43.579 C 170.895 43.637,216.577 43.637,244.421 43.579 C 272.264 43.522,249.363 43.475,193.529 43.475 C 137.695 43.475,114.914 43.522,142.904 43.579 M373.908 479.676 C 373.908 513.155,373.956 526.850,374.014 510.111 C 374.073 493.372,374.073 465.981,374.014 449.242 C 373.956 432.503,373.908 446.198,373.908 479.676 M342.697 420.930 C 347.550 420.994,355.376 420.994,360.088 420.930 C 364.800 420.865,360.829 420.812,351.264 420.812 C 341.699 420.812,337.843 420.865,342.697 420.930 M345.905 543.073 C 350.743 543.138,358.660 543.138,363.498 543.073 C 368.337 543.009,364.378 542.956,354.702 542.956 C 345.025 542.956,341.067 543.009,345.905 543.073 M258.586 927.199 C 258.585 929.201,258.654 930.071,258.738 929.133 C 258.823 928.194,258.824 926.556,258.741 925.492 C 258.657 924.429,258.588 925.197,258.586 927.199 M111.798 927.199 C 111.688 927.644,111.656 930.920,111.726 934.479 L 111.852 940.950 111.942 933.974 L 112.032 926.997 183.081 926.997 C 222.157 926.997,254.022 926.890,253.892 926.760 C 253.099 925.967,111.994 926.404,111.798 927.199 M258.589 940.344 C 258.589 942.457,258.657 943.322,258.740 942.265 C 258.823 941.208,258.823 939.479,258.740 938.423 C 258.657 937.366,258.589 938.231,258.589 940.344 M145.501 945.500 C 166.021 945.558,199.601 945.558,220.121 945.500 C 240.642 945.443,223.852 945.395,182.811 945.395 C 141.769 945.395,124.980 945.443,145.501 945.500 " stroke="none" fill="#dcdcdc" fill-rule="evenodd"></path></g></svg>